<svg height="48" width="48" xmlns="http://www.w3.org/2000/svg"><defs><style>.cls-2{fill:#f1f2f2}</style></defs><g data-name="21-Gmail" id="_21-Gmail"><g data-name="&lt;Group&gt;" id="_Group_"><path d="M6 37v3H4a3 3 0 01-3-3V11a3 3 0 013-3h3l17 15L41 8h3a3 3 0 013 3v26a3 3 0 01-3 3h-2V13L24 29 6 13z" fill="#fa5c66"/><path class="cls-2" d="M42 36v4H6V13l18 16 18-16v23z"/><path class="cls-2" d="M41 8L24 23 7 8h34z"/><path d="M42 37a1 1 0 01-1-1V15.227l-16.335 14.52a1 1 0 01-1.33 0L7 15.227V36a1 1 0 01-2 0V13a1 1 0 011.665-.748L24 27.662l17.335-15.41A1 1 0 0143 13v23a1 1 0 01-1 1z" fill="#e93d5b"/></g></g></svg>