<svg viewBox="0 0 28.87 28.87" xmlns="http://www.w3.org/2000/svg"><defs><style>.cls-2{fill:#fff}</style></defs><g data-name="Layer 2" id="Layer_2"><g data-name="Layer 1" id="Layer_1-2"><rect height="28.87" rx="6.48" ry="6.48" width="28.87" fill="#7d3daf"/><path class="cls-2" d="M21.83 10.28a5.34 5.34 0 00-3.6-3.47 20 20 0 00-7.54 0A5.34 5.34 0 007 10.26a14.75 14.75 0 000 6.35 5.38 5.38 0 003.4 3.42v1.69a.68.68 0 001.17.47l1.71-1.77h1.11a20.09 20.09 0 003.77-.36 5.34 5.34 0 003.6-3.47 14.75 14.75 0 00.07-6.31zm-1.35 6a4 4 0 01-2.54 2.44 18.66 18.66 0 01-4 .32.09.09 0 00-.07 0l-1.26 1.36-1.33 1.36a.16.16 0 01-.27-.11v-2.79a.1.1 0 00-.08-.09 4 4 0 01-2.54-2.44 13.38 13.38 0 010-5.74 4 4 0 012.54-2.44 18.64 18.64 0 017 0 4 4 0 012.54 2.44 13.37 13.37 0 01.01 5.74z"/><path class="cls-2" d="M17.82 15.84a7.84 7.84 0 00-.65-.49c-.23-.16-.45-.32-.69-.47a.61.61 0 00-.73 0c-.22.18-.33.53-.64.57a1 1 0 01-.52-.13 3.62 3.62 0 01-2-2.25.45.45 0 010-.4.69.69 0 01.16-.17l.21-.16a.65.65 0 00.18-.88 8.08 8.08 0 00-1-1.36.5.5 0 00-.63-.15 2.34 2.34 0 00-.78.59 1 1 0 00-.3 1c.16.39.32.78.5 1.16a9.85 9.85 0 001.45 2.22 10.06 10.06 0 003.79 2.54c.14.06.29.09.44.14a2.23 2.23 0 00.4-.13 2.15 2.15 0 00.93-1 .51.51 0 00-.12-.63zm-3.38-6.35h-.11a.23.23 0 00-.23.26c0 .17.2.17.34.19s.43 0 .63.07a3.35 3.35 0 012.7 2.8c0 .26.05.53.07.8s.08.26.23.26a.22.22 0 00.21-.26c0-.32 0-.64-.1-1a3.81 3.81 0 00-3.74-3.12z"/><path class="cls-2" d="M16.85 13.15a.57.57 0 000 .18.21.21 0 00.4 0 .87.87 0 000-.13v-.44a2.48 2.48 0 00-1.35-1.93 2.94 2.94 0 00-1.23-.32.2.2 0 00-.22.2.2.2 0 00.19.23L15 11a2.56 2.56 0 01.71.22 2.12 2.12 0 01.89.83 2.27 2.27 0 01.25 1.1z"/><path class="cls-2" d="M16.29 13a.59.59 0 000-.18 1.29 1.29 0 00-1.29-1.3.23.23 0 00-.24.18.21.21 0 00.17.25c.11 0 .23 0 .35.05a.81.81 0 01.25.12.84.84 0 01.31.49 2.34 2.34 0 010 .3.23.23 0 00.24.23.19.19 0 00.21-.14z"/></g></g></svg>